<mxfile host="app.diagrams.net" modified="2022-01-22T13:00:18.246Z" agent="5.0 (Windows NT 10.0; Win64; x64) AppleWebKit/537.36 (KHTML, like Gecko) Chrome/97.0.4692.99 Safari/537.36" etag="xvaIwliHS1JDiJjzx0Gv" version="16.4.5" type="github">
  <diagram id="2WhNnKx9BYnM6-8Q6nJ9" name="Page-1">
    <mxGraphModel dx="1240" dy="791" grid="1" gridSize="10" guides="1" tooltips="1" connect="1" arrows="1" fold="1" page="1" pageScale="1" pageWidth="2000" pageHeight="2000" math="0" shadow="0">
      <root>
        <mxCell id="0" />
        <mxCell id="1" parent="0" />
        <mxCell id="GqWoVpASG3csie5MfJsl-1" value="회원" style="shape=umlActor;verticalLabelPosition=bottom;verticalAlign=top;html=1;outlineConnect=0;" parent="1" vertex="1">
          <mxGeometry x="312.5" y="460" width="30" height="60" as="geometry" />
        </mxCell>
        <mxCell id="GqWoVpASG3csie5MfJsl-2" value="비회원" style="shape=umlActor;verticalLabelPosition=bottom;verticalAlign=top;html=1;outlineConnect=0;" parent="1" vertex="1">
          <mxGeometry x="312.5" y="320" width="30" height="60" as="geometry" />
        </mxCell>
        <mxCell id="GqWoVpASG3csie5MfJsl-3" value="이용자" style="shape=umlActor;verticalLabelPosition=bottom;verticalAlign=top;html=1;outlineConnect=0;" parent="1" vertex="1">
          <mxGeometry x="452.5" y="400" width="30" height="60" as="geometry" />
        </mxCell>
        <mxCell id="GqWoVpASG3csie5MfJsl-4" value="" style="endArrow=block;html=1;rounded=0;exitX=0.5;exitY=0.5;exitDx=0;exitDy=0;exitPerimeter=0;entryX=0.5;entryY=0.5;entryDx=0;entryDy=0;entryPerimeter=0;endFill=0;endSize=6;startSize=6;jumpSize=6;jumpStyle=none;" parent="1" source="GqWoVpASG3csie5MfJsl-1" target="GqWoVpASG3csie5MfJsl-3" edge="1">
          <mxGeometry width="50" height="50" relative="1" as="geometry">
            <mxPoint x="482.5" y="500" as="sourcePoint" />
            <mxPoint x="532.5" y="450" as="targetPoint" />
          </mxGeometry>
        </mxCell>
        <mxCell id="GqWoVpASG3csie5MfJsl-5" value="" style="endArrow=block;html=1;rounded=0;exitX=0.5;exitY=0.5;exitDx=0;exitDy=0;exitPerimeter=0;entryX=0.5;entryY=0.5;entryDx=0;entryDy=0;entryPerimeter=0;endFill=0;" parent="1" source="GqWoVpASG3csie5MfJsl-2" target="GqWoVpASG3csie5MfJsl-3" edge="1">
          <mxGeometry width="50" height="50" relative="1" as="geometry">
            <mxPoint x="377.5" y="380.0000000000001" as="sourcePoint" />
            <mxPoint x="477.5" y="440.0000000000001" as="targetPoint" />
          </mxGeometry>
        </mxCell>
        <mxCell id="GqWoVpASG3csie5MfJsl-6" value="다님" style="swimlane;" parent="1" vertex="1">
          <mxGeometry x="540" y="130" width="1040" height="1210" as="geometry" />
        </mxCell>
        <mxCell id="GqWoVpASG3csie5MfJsl-9" value="회원가입" style="ellipse;whiteSpace=wrap;html=1;" parent="GqWoVpASG3csie5MfJsl-6" vertex="1">
          <mxGeometry x="17.5" y="30" width="100" height="40" as="geometry" />
        </mxCell>
        <mxCell id="GqWoVpASG3csie5MfJsl-10" value="main page" style="ellipse;whiteSpace=wrap;html=1;" parent="GqWoVpASG3csie5MfJsl-6" vertex="1">
          <mxGeometry x="17.5" y="150" width="100" height="40" as="geometry" />
        </mxCell>
        <mxCell id="GqWoVpASG3csie5MfJsl-11" value="챗봇" style="ellipse;whiteSpace=wrap;html=1;" parent="GqWoVpASG3csie5MfJsl-6" vertex="1">
          <mxGeometry x="27.5" y="710" width="100" height="40" as="geometry" />
        </mxCell>
        <mxCell id="GqWoVpASG3csie5MfJsl-12" value="이용자 인증" style="ellipse;whiteSpace=wrap;html=1;" parent="GqWoVpASG3csie5MfJsl-6" vertex="1">
          <mxGeometry x="717.5" y="650" width="100" height="40" as="geometry" />
        </mxCell>
        <mxCell id="GqWoVpASG3csie5MfJsl-13" value="게시판" style="ellipse;whiteSpace=wrap;html=1;" parent="GqWoVpASG3csie5MfJsl-6" vertex="1">
          <mxGeometry x="67.5" y="270" width="100" height="40" as="geometry" />
        </mxCell>
        <mxCell id="GqWoVpASG3csie5MfJsl-14" value="키워드 검색하기" style="ellipse;whiteSpace=wrap;html=1;" parent="GqWoVpASG3csie5MfJsl-6" vertex="1">
          <mxGeometry x="160" y="70" width="100" height="40" as="geometry" />
        </mxCell>
        <mxCell id="GqWoVpASG3csie5MfJsl-19" value="질문하기" style="ellipse;whiteSpace=wrap;html=1;" parent="GqWoVpASG3csie5MfJsl-6" vertex="1">
          <mxGeometry x="170" y="710" width="100" height="40" as="geometry" />
        </mxCell>
        <mxCell id="GqWoVpASG3csie5MfJsl-20" value="" style="endArrow=open;html=1;rounded=0;entryX=0;entryY=0.5;entryDx=0;entryDy=0;exitX=1;exitY=0.5;exitDx=0;exitDy=0;endFill=0;" parent="GqWoVpASG3csie5MfJsl-6" source="GqWoVpASG3csie5MfJsl-11" target="GqWoVpASG3csie5MfJsl-19" edge="1">
          <mxGeometry width="50" height="50" relative="1" as="geometry">
            <mxPoint x="140" y="790" as="sourcePoint" />
            <mxPoint x="190" y="740" as="targetPoint" />
          </mxGeometry>
        </mxCell>
        <mxCell id="GqWoVpASG3csie5MfJsl-21" value="질문 등록" style="ellipse;whiteSpace=wrap;html=1;" parent="GqWoVpASG3csie5MfJsl-6" vertex="1">
          <mxGeometry x="387.5" y="710" width="100" height="40" as="geometry" />
        </mxCell>
        <mxCell id="GqWoVpASG3csie5MfJsl-22" value="" style="endArrow=open;html=1;rounded=0;entryX=1;entryY=0.5;entryDx=0;entryDy=0;exitX=0;exitY=0.5;exitDx=0;exitDy=0;dashed=1;endFill=0;" parent="GqWoVpASG3csie5MfJsl-6" source="GqWoVpASG3csie5MfJsl-21" target="GqWoVpASG3csie5MfJsl-19" edge="1">
          <mxGeometry relative="1" as="geometry">
            <mxPoint x="120" y="760" as="sourcePoint" />
            <mxPoint x="220" y="760" as="targetPoint" />
            <Array as="points">
              <mxPoint x="310" y="730" />
            </Array>
          </mxGeometry>
        </mxCell>
        <mxCell id="GqWoVpASG3csie5MfJsl-23" value="&amp;lt;&amp;lt;extends&amp;gt;&amp;gt;" style="edgeLabel;resizable=0;html=1;align=center;verticalAlign=middle;" parent="GqWoVpASG3csie5MfJsl-22" connectable="0" vertex="1">
          <mxGeometry relative="1" as="geometry" />
        </mxCell>
        <mxCell id="GqWoVpASG3csie5MfJsl-26" value="" style="endArrow=none;html=1;rounded=0;entryX=0;entryY=0.5;entryDx=0;entryDy=0;exitX=1;exitY=0.5;exitDx=0;exitDy=0;" parent="GqWoVpASG3csie5MfJsl-6" source="GqWoVpASG3csie5MfJsl-10" target="GqWoVpASG3csie5MfJsl-14" edge="1">
          <mxGeometry width="50" height="50" relative="1" as="geometry">
            <mxPoint x="80" y="360" as="sourcePoint" />
            <mxPoint x="130" y="310" as="targetPoint" />
          </mxGeometry>
        </mxCell>
        <mxCell id="GqWoVpASG3csie5MfJsl-27" value="#태그 추천 보기" style="ellipse;whiteSpace=wrap;html=1;" parent="GqWoVpASG3csie5MfJsl-6" vertex="1">
          <mxGeometry x="160" y="150" width="100" height="40" as="geometry" />
        </mxCell>
        <mxCell id="GqWoVpASG3csie5MfJsl-28" value="" style="endArrow=none;html=1;rounded=0;entryX=0;entryY=0.5;entryDx=0;entryDy=0;exitX=1;exitY=0.5;exitDx=0;exitDy=0;" parent="GqWoVpASG3csie5MfJsl-6" source="GqWoVpASG3csie5MfJsl-10" target="GqWoVpASG3csie5MfJsl-27" edge="1">
          <mxGeometry width="50" height="50" relative="1" as="geometry">
            <mxPoint x="140" y="210" as="sourcePoint" />
            <mxPoint x="170" y="180" as="targetPoint" />
          </mxGeometry>
        </mxCell>
        <mxCell id="GqWoVpASG3csie5MfJsl-36" value="마이페이지" style="ellipse;whiteSpace=wrap;html=1;" parent="GqWoVpASG3csie5MfJsl-6" vertex="1">
          <mxGeometry x="30" y="850" width="100" height="40" as="geometry" />
        </mxCell>
        <mxCell id="GqWoVpASG3csie5MfJsl-37" value="자유 게시판" style="ellipse;whiteSpace=wrap;html=1;" parent="GqWoVpASG3csie5MfJsl-6" vertex="1">
          <mxGeometry x="277.5" y="200" width="100" height="40" as="geometry" />
        </mxCell>
        <mxCell id="GqWoVpASG3csie5MfJsl-38" value="리뷰 게시판" style="ellipse;whiteSpace=wrap;html=1;" parent="GqWoVpASG3csie5MfJsl-6" vertex="1">
          <mxGeometry x="277.5" y="270" width="100" height="40" as="geometry" />
        </mxCell>
        <mxCell id="GqWoVpASG3csie5MfJsl-39" value="질문 게시판" style="ellipse;whiteSpace=wrap;html=1;" parent="GqWoVpASG3csie5MfJsl-6" vertex="1">
          <mxGeometry x="277.5" y="340" width="100" height="40" as="geometry" />
        </mxCell>
        <mxCell id="GqWoVpASG3csie5MfJsl-41" value="일정 관리" style="ellipse;whiteSpace=wrap;html=1;" parent="GqWoVpASG3csie5MfJsl-6" vertex="1">
          <mxGeometry x="172.5" y="850" width="100" height="40" as="geometry" />
        </mxCell>
        <mxCell id="GqWoVpASG3csie5MfJsl-62" value="일정 추가" style="ellipse;whiteSpace=wrap;html=1;" parent="GqWoVpASG3csie5MfJsl-6" vertex="1">
          <mxGeometry x="366.5" y="800" width="100" height="40" as="geometry" />
        </mxCell>
        <mxCell id="GqWoVpASG3csie5MfJsl-63" value="일정 삭제" style="ellipse;whiteSpace=wrap;html=1;" parent="GqWoVpASG3csie5MfJsl-6" vertex="1">
          <mxGeometry x="366.5" y="850" width="100" height="40" as="geometry" />
        </mxCell>
        <mxCell id="GqWoVpASG3csie5MfJsl-64" value="일정 수정" style="ellipse;whiteSpace=wrap;html=1;" parent="GqWoVpASG3csie5MfJsl-6" vertex="1">
          <mxGeometry x="366.5" y="900" width="100" height="40" as="geometry" />
        </mxCell>
        <mxCell id="GqWoVpASG3csie5MfJsl-65" value="" style="endArrow=open;html=1;rounded=0;entryX=1;entryY=0.5;entryDx=0;entryDy=0;exitX=0;exitY=0.5;exitDx=0;exitDy=0;dashed=1;endFill=0;" parent="GqWoVpASG3csie5MfJsl-6" source="GqWoVpASG3csie5MfJsl-62" target="GqWoVpASG3csie5MfJsl-41" edge="1">
          <mxGeometry relative="1" as="geometry">
            <mxPoint x="342.5" y="859.6700000000001" as="sourcePoint" />
            <mxPoint x="252.5" y="859.6700000000001" as="targetPoint" />
            <Array as="points" />
          </mxGeometry>
        </mxCell>
        <mxCell id="GqWoVpASG3csie5MfJsl-66" value="&amp;lt;&amp;lt;extends&amp;gt;&amp;gt;" style="edgeLabel;resizable=0;html=1;align=center;verticalAlign=middle;" parent="GqWoVpASG3csie5MfJsl-65" connectable="0" vertex="1">
          <mxGeometry relative="1" as="geometry" />
        </mxCell>
        <mxCell id="GqWoVpASG3csie5MfJsl-67" value="" style="endArrow=open;html=1;rounded=0;entryX=1;entryY=0.5;entryDx=0;entryDy=0;exitX=0;exitY=0.5;exitDx=0;exitDy=0;dashed=1;endFill=0;" parent="GqWoVpASG3csie5MfJsl-6" source="GqWoVpASG3csie5MfJsl-64" target="GqWoVpASG3csie5MfJsl-41" edge="1">
          <mxGeometry relative="1" as="geometry">
            <mxPoint x="330" y="930" as="sourcePoint" />
            <mxPoint x="282.5" y="980" as="targetPoint" />
            <Array as="points" />
          </mxGeometry>
        </mxCell>
        <mxCell id="GqWoVpASG3csie5MfJsl-68" value="&amp;lt;&amp;lt;extends&amp;gt;&amp;gt;" style="edgeLabel;resizable=0;html=1;align=center;verticalAlign=middle;" parent="GqWoVpASG3csie5MfJsl-67" connectable="0" vertex="1">
          <mxGeometry relative="1" as="geometry" />
        </mxCell>
        <mxCell id="GqWoVpASG3csie5MfJsl-69" value="" style="endArrow=open;html=1;rounded=0;entryX=1;entryY=0.5;entryDx=0;entryDy=0;exitX=0;exitY=0.5;exitDx=0;exitDy=0;dashed=1;endFill=0;" parent="GqWoVpASG3csie5MfJsl-6" source="GqWoVpASG3csie5MfJsl-63" target="GqWoVpASG3csie5MfJsl-41" edge="1">
          <mxGeometry relative="1" as="geometry">
            <mxPoint x="362.5" y="880" as="sourcePoint" />
            <mxPoint x="315" y="930" as="targetPoint" />
            <Array as="points" />
          </mxGeometry>
        </mxCell>
        <mxCell id="GqWoVpASG3csie5MfJsl-70" value="&amp;lt;&amp;lt;extends&amp;gt;&amp;gt;" style="edgeLabel;resizable=0;html=1;align=center;verticalAlign=middle;" parent="GqWoVpASG3csie5MfJsl-69" connectable="0" vertex="1">
          <mxGeometry relative="1" as="geometry" />
        </mxCell>
        <mxCell id="GqWoVpASG3csie5MfJsl-71" value="" style="endArrow=none;html=1;rounded=0;entryX=0;entryY=0.5;entryDx=0;entryDy=0;exitX=1;exitY=0.5;exitDx=0;exitDy=0;endFill=0;" parent="GqWoVpASG3csie5MfJsl-6" source="GqWoVpASG3csie5MfJsl-36" target="GqWoVpASG3csie5MfJsl-41" edge="1">
          <mxGeometry width="50" height="50" relative="1" as="geometry">
            <mxPoint x="37.5" y="900" as="sourcePoint" />
            <mxPoint x="87.5" y="850" as="targetPoint" />
          </mxGeometry>
        </mxCell>
        <mxCell id="GqWoVpASG3csie5MfJsl-72" value="" style="endArrow=open;html=1;rounded=0;exitX=0.5;exitY=0;exitDx=0;exitDy=0;entryX=0.5;entryY=1;entryDx=0;entryDy=0;dashed=1;endFill=0;" parent="GqWoVpASG3csie5MfJsl-6" source="GqWoVpASG3csie5MfJsl-12" target="GqWoVpASG3csie5MfJsl-74" edge="1">
          <mxGeometry relative="1" as="geometry">
            <mxPoint x="-2.5" y="610" as="sourcePoint" />
            <mxPoint x="97.5" y="640" as="targetPoint" />
          </mxGeometry>
        </mxCell>
        <mxCell id="GqWoVpASG3csie5MfJsl-73" value="include" style="edgeLabel;resizable=0;html=1;align=center;verticalAlign=middle;" parent="GqWoVpASG3csie5MfJsl-72" connectable="0" vertex="1">
          <mxGeometry relative="1" as="geometry" />
        </mxCell>
        <mxCell id="GqWoVpASG3csie5MfJsl-74" value="계정 확인" style="ellipse;whiteSpace=wrap;html=1;" parent="GqWoVpASG3csie5MfJsl-6" vertex="1">
          <mxGeometry x="667.5" y="550" width="100" height="40" as="geometry" />
        </mxCell>
        <mxCell id="GqWoVpASG3csie5MfJsl-75" value="" style="endArrow=open;html=1;rounded=0;entryX=0.5;entryY=1;entryDx=0;entryDy=0;exitX=0.5;exitY=0;exitDx=0;exitDy=0;dashed=1;endFill=0;" parent="GqWoVpASG3csie5MfJsl-6" source="GqWoVpASG3csie5MfJsl-36" target="GqWoVpASG3csie5MfJsl-12" edge="1">
          <mxGeometry relative="1" as="geometry">
            <mxPoint x="130" y="700" as="sourcePoint" />
            <mxPoint x="36" y="750" as="targetPoint" />
            <Array as="points">
              <mxPoint x="80" y="780" />
              <mxPoint x="420" y="780" />
              <mxPoint x="767.5" y="780" />
            </Array>
          </mxGeometry>
        </mxCell>
        <mxCell id="GqWoVpASG3csie5MfJsl-76" value="&amp;lt;&amp;lt;include&amp;gt;&amp;gt;" style="edgeLabel;resizable=0;html=1;align=center;verticalAlign=middle;" parent="GqWoVpASG3csie5MfJsl-75" connectable="0" vertex="1">
          <mxGeometry relative="1" as="geometry" />
        </mxCell>
        <mxCell id="GqWoVpASG3csie5MfJsl-112" value="로그인 에러" style="ellipse;whiteSpace=wrap;html=1;" parent="GqWoVpASG3csie5MfJsl-6" vertex="1">
          <mxGeometry x="810" y="550" width="100" height="40" as="geometry" />
        </mxCell>
        <mxCell id="GqWoVpASG3csie5MfJsl-115" value="" style="endArrow=open;html=1;rounded=0;entryX=0.5;entryY=0;entryDx=0;entryDy=0;exitX=0;exitY=1;exitDx=0;exitDy=0;dashed=1;endFill=0;" parent="GqWoVpASG3csie5MfJsl-6" source="GqWoVpASG3csie5MfJsl-112" target="GqWoVpASG3csie5MfJsl-12" edge="1">
          <mxGeometry relative="1" as="geometry">
            <mxPoint x="77.5" y="800" as="sourcePoint" />
            <mxPoint x="77.5" y="570" as="targetPoint" />
            <Array as="points" />
          </mxGeometry>
        </mxCell>
        <mxCell id="GqWoVpASG3csie5MfJsl-116" value="&amp;lt;&amp;lt;extends&amp;gt;&amp;gt;" style="edgeLabel;resizable=0;html=1;align=center;verticalAlign=middle;" parent="GqWoVpASG3csie5MfJsl-115" connectable="0" vertex="1">
          <mxGeometry relative="1" as="geometry">
            <mxPoint x="9" y="5" as="offset" />
          </mxGeometry>
        </mxCell>
        <mxCell id="-MZYs4E1BQSsxQn4g9lz-1" value="" style="endArrow=open;html=1;rounded=0;exitX=1;exitY=0.5;exitDx=0;exitDy=0;entryX=0;entryY=1;entryDx=0;entryDy=0;dashed=1;endFill=0;" edge="1" parent="GqWoVpASG3csie5MfJsl-6" source="GqWoVpASG3csie5MfJsl-21" target="GqWoVpASG3csie5MfJsl-12">
          <mxGeometry relative="1" as="geometry">
            <mxPoint x="127.5" y="620" as="sourcePoint" />
            <mxPoint x="267.5" y="640" as="targetPoint" />
            <Array as="points">
              <mxPoint x="732.5" y="730" />
            </Array>
          </mxGeometry>
        </mxCell>
        <mxCell id="-MZYs4E1BQSsxQn4g9lz-2" value="include" style="edgeLabel;resizable=0;html=1;align=center;verticalAlign=middle;" connectable="0" vertex="1" parent="-MZYs4E1BQSsxQn4g9lz-1">
          <mxGeometry relative="1" as="geometry" />
        </mxCell>
        <mxCell id="-MZYs4E1BQSsxQn4g9lz-5" value="" style="endArrow=open;html=1;rounded=0;entryX=0;entryY=0.5;entryDx=0;entryDy=0;exitX=1;exitY=0.5;exitDx=0;exitDy=0;endFill=0;" edge="1" parent="GqWoVpASG3csie5MfJsl-6" source="GqWoVpASG3csie5MfJsl-13" target="GqWoVpASG3csie5MfJsl-37">
          <mxGeometry width="50" height="50" relative="1" as="geometry">
            <mxPoint x="270" y="480" as="sourcePoint" />
            <mxPoint x="312.5" y="480" as="targetPoint" />
            <Array as="points" />
          </mxGeometry>
        </mxCell>
        <mxCell id="-MZYs4E1BQSsxQn4g9lz-6" value="" style="endArrow=open;html=1;rounded=0;entryX=0;entryY=0.5;entryDx=0;entryDy=0;exitX=1;exitY=0.5;exitDx=0;exitDy=0;endFill=0;" edge="1" parent="GqWoVpASG3csie5MfJsl-6" source="GqWoVpASG3csie5MfJsl-13" target="GqWoVpASG3csie5MfJsl-38">
          <mxGeometry width="50" height="50" relative="1" as="geometry">
            <mxPoint x="270" y="320" as="sourcePoint" />
            <mxPoint x="312.5" y="260" as="targetPoint" />
          </mxGeometry>
        </mxCell>
        <mxCell id="-MZYs4E1BQSsxQn4g9lz-7" value="" style="endArrow=open;html=1;rounded=0;entryX=0;entryY=0.5;entryDx=0;entryDy=0;exitX=1;exitY=0.5;exitDx=0;exitDy=0;endFill=0;" edge="1" parent="GqWoVpASG3csie5MfJsl-6" source="GqWoVpASG3csie5MfJsl-13" target="GqWoVpASG3csie5MfJsl-39">
          <mxGeometry width="50" height="50" relative="1" as="geometry">
            <mxPoint x="270" y="320" as="sourcePoint" />
            <mxPoint x="312.5" y="320" as="targetPoint" />
            <Array as="points" />
          </mxGeometry>
        </mxCell>
        <mxCell id="-MZYs4E1BQSsxQn4g9lz-16" value="지도(Map) 보기" style="ellipse;whiteSpace=wrap;html=1;" vertex="1" parent="GqWoVpASG3csie5MfJsl-6">
          <mxGeometry x="437.5" y="70" width="100" height="40" as="geometry" />
        </mxCell>
        <mxCell id="-MZYs4E1BQSsxQn4g9lz-18" value="주변 정보 보기" style="ellipse;whiteSpace=wrap;html=1;" vertex="1" parent="GqWoVpASG3csie5MfJsl-6">
          <mxGeometry x="567.5" y="30" width="100" height="40" as="geometry" />
        </mxCell>
        <mxCell id="-MZYs4E1BQSsxQn4g9lz-19" value="한줄 리뷰 보기" style="ellipse;whiteSpace=wrap;html=1;" vertex="1" parent="GqWoVpASG3csie5MfJsl-6">
          <mxGeometry x="567.5" y="110" width="100" height="40" as="geometry" />
        </mxCell>
        <mxCell id="-MZYs4E1BQSsxQn4g9lz-71" value="" style="endArrow=open;html=1;rounded=0;startSize=6;endSize=6;jumpStyle=none;jumpSize=6;entryX=0;entryY=0.5;entryDx=0;entryDy=0;exitX=1;exitY=0.5;exitDx=0;exitDy=0;endFill=0;" edge="1" parent="GqWoVpASG3csie5MfJsl-6" source="-MZYs4E1BQSsxQn4g9lz-16" target="-MZYs4E1BQSsxQn4g9lz-18">
          <mxGeometry width="50" height="50" relative="1" as="geometry">
            <mxPoint x="487.5" y="290" as="sourcePoint" />
            <mxPoint x="537.5" y="240" as="targetPoint" />
            <Array as="points">
              <mxPoint x="537.5" y="50" />
            </Array>
          </mxGeometry>
        </mxCell>
        <mxCell id="-MZYs4E1BQSsxQn4g9lz-70" value="" style="endArrow=open;html=1;rounded=0;startSize=6;endSize=6;jumpStyle=none;jumpSize=6;entryX=0;entryY=0.5;entryDx=0;entryDy=0;exitX=1;exitY=0.5;exitDx=0;exitDy=0;endFill=0;" edge="1" parent="GqWoVpASG3csie5MfJsl-6" source="-MZYs4E1BQSsxQn4g9lz-16" target="-MZYs4E1BQSsxQn4g9lz-19">
          <mxGeometry width="50" height="50" relative="1" as="geometry">
            <mxPoint x="477.5" y="280" as="sourcePoint" />
            <mxPoint x="527.5" y="230" as="targetPoint" />
            <Array as="points">
              <mxPoint x="538" y="130" />
            </Array>
          </mxGeometry>
        </mxCell>
        <mxCell id="-MZYs4E1BQSsxQn4g9lz-76" value="게시글 관리" style="ellipse;whiteSpace=wrap;html=1;" vertex="1" parent="GqWoVpASG3csie5MfJsl-6">
          <mxGeometry x="471.5" y="270" width="100" height="40" as="geometry" />
        </mxCell>
        <mxCell id="-MZYs4E1BQSsxQn4g9lz-11" value="ID찾기" style="ellipse;whiteSpace=wrap;html=1;" vertex="1" parent="GqWoVpASG3csie5MfJsl-6">
          <mxGeometry x="190" y="500" width="100" height="40" as="geometry" />
        </mxCell>
        <mxCell id="-MZYs4E1BQSsxQn4g9lz-79" value="게시글 추가" style="ellipse;whiteSpace=wrap;html=1;" vertex="1" parent="GqWoVpASG3csie5MfJsl-6">
          <mxGeometry x="667.5" y="220" width="100" height="40" as="geometry" />
        </mxCell>
        <mxCell id="-MZYs4E1BQSsxQn4g9lz-80" value="게시글 삭제" style="ellipse;whiteSpace=wrap;html=1;" vertex="1" parent="GqWoVpASG3csie5MfJsl-6">
          <mxGeometry x="667.5" y="270" width="100" height="40" as="geometry" />
        </mxCell>
        <mxCell id="-MZYs4E1BQSsxQn4g9lz-81" value="게시글 수정" style="ellipse;whiteSpace=wrap;html=1;" vertex="1" parent="GqWoVpASG3csie5MfJsl-6">
          <mxGeometry x="667.5" y="320" width="100" height="40" as="geometry" />
        </mxCell>
        <mxCell id="-MZYs4E1BQSsxQn4g9lz-83" value="" style="endArrow=open;html=1;rounded=0;entryX=1;entryY=0.5;entryDx=0;entryDy=0;exitX=0;exitY=0.5;exitDx=0;exitDy=0;dashed=1;endFill=0;" edge="1" parent="GqWoVpASG3csie5MfJsl-6" source="-MZYs4E1BQSsxQn4g9lz-79" target="-MZYs4E1BQSsxQn4g9lz-76">
          <mxGeometry relative="1" as="geometry">
            <mxPoint x="651.999999999995" y="419.9999999999998" as="sourcePoint" />
            <mxPoint x="557.9999999999998" y="470" as="targetPoint" />
            <Array as="points" />
          </mxGeometry>
        </mxCell>
        <mxCell id="-MZYs4E1BQSsxQn4g9lz-84" value="&amp;lt;&amp;lt;extends&amp;gt;&amp;gt;" style="edgeLabel;resizable=0;html=1;align=center;verticalAlign=middle;" connectable="0" vertex="1" parent="-MZYs4E1BQSsxQn4g9lz-83">
          <mxGeometry relative="1" as="geometry" />
        </mxCell>
        <mxCell id="-MZYs4E1BQSsxQn4g9lz-87" value="" style="endArrow=open;html=1;rounded=0;entryX=1;entryY=0.5;entryDx=0;entryDy=0;exitX=0;exitY=0.5;exitDx=0;exitDy=0;dashed=1;endFill=0;" edge="1" parent="GqWoVpASG3csie5MfJsl-6" source="-MZYs4E1BQSsxQn4g9lz-80" target="-MZYs4E1BQSsxQn4g9lz-76">
          <mxGeometry relative="1" as="geometry">
            <mxPoint x="714" y="260" as="sourcePoint" />
            <mxPoint x="668" y="310" as="targetPoint" />
            <Array as="points" />
          </mxGeometry>
        </mxCell>
        <mxCell id="-MZYs4E1BQSsxQn4g9lz-88" value="&amp;lt;&amp;lt;extends&amp;gt;&amp;gt;" style="edgeLabel;resizable=0;html=1;align=center;verticalAlign=middle;" connectable="0" vertex="1" parent="-MZYs4E1BQSsxQn4g9lz-87">
          <mxGeometry relative="1" as="geometry" />
        </mxCell>
        <mxCell id="-MZYs4E1BQSsxQn4g9lz-89" value="" style="endArrow=open;html=1;rounded=0;entryX=1;entryY=0.5;entryDx=0;entryDy=0;exitX=0;exitY=0.5;exitDx=0;exitDy=0;dashed=1;endFill=0;" edge="1" parent="GqWoVpASG3csie5MfJsl-6" source="-MZYs4E1BQSsxQn4g9lz-81" target="-MZYs4E1BQSsxQn4g9lz-76">
          <mxGeometry relative="1" as="geometry">
            <mxPoint x="724" y="270" as="sourcePoint" />
            <mxPoint x="678" y="320" as="targetPoint" />
            <Array as="points" />
          </mxGeometry>
        </mxCell>
        <mxCell id="-MZYs4E1BQSsxQn4g9lz-90" value="&amp;lt;&amp;lt;extends&amp;gt;&amp;gt;" style="edgeLabel;resizable=0;html=1;align=center;verticalAlign=middle;" connectable="0" vertex="1" parent="-MZYs4E1BQSsxQn4g9lz-89">
          <mxGeometry relative="1" as="geometry" />
        </mxCell>
        <mxCell id="-MZYs4E1BQSsxQn4g9lz-93" value="" style="endArrow=open;html=1;rounded=0;entryX=1;entryY=0.5;entryDx=0;entryDy=0;exitX=0;exitY=0.5;exitDx=0;exitDy=0;dashed=1;endFill=0;" edge="1" parent="GqWoVpASG3csie5MfJsl-6" source="-MZYs4E1BQSsxQn4g9lz-76" target="GqWoVpASG3csie5MfJsl-38">
          <mxGeometry relative="1" as="geometry">
            <mxPoint x="599.9999999999891" y="400" as="sourcePoint" />
            <mxPoint x="504" y="400" as="targetPoint" />
            <Array as="points" />
          </mxGeometry>
        </mxCell>
        <mxCell id="-MZYs4E1BQSsxQn4g9lz-94" value="&amp;lt;&amp;lt;extends&amp;gt;&amp;gt;" style="edgeLabel;resizable=0;html=1;align=center;verticalAlign=middle;" connectable="0" vertex="1" parent="-MZYs4E1BQSsxQn4g9lz-93">
          <mxGeometry relative="1" as="geometry" />
        </mxCell>
        <mxCell id="-MZYs4E1BQSsxQn4g9lz-95" value="" style="endArrow=open;html=1;rounded=0;entryX=1;entryY=0.5;entryDx=0;entryDy=0;exitX=0;exitY=0.5;exitDx=0;exitDy=0;dashed=1;endFill=0;" edge="1" parent="GqWoVpASG3csie5MfJsl-6" source="-MZYs4E1BQSsxQn4g9lz-76" target="GqWoVpASG3csie5MfJsl-37">
          <mxGeometry relative="1" as="geometry">
            <mxPoint x="481.5" y="320" as="sourcePoint" />
            <mxPoint x="387.4999999999998" y="320" as="targetPoint" />
            <Array as="points" />
          </mxGeometry>
        </mxCell>
        <mxCell id="-MZYs4E1BQSsxQn4g9lz-96" value="&amp;lt;&amp;lt;extends&amp;gt;&amp;gt;" style="edgeLabel;resizable=0;html=1;align=center;verticalAlign=middle;" connectable="0" vertex="1" parent="-MZYs4E1BQSsxQn4g9lz-95">
          <mxGeometry relative="1" as="geometry" />
        </mxCell>
        <mxCell id="-MZYs4E1BQSsxQn4g9lz-97" value="" style="endArrow=open;html=1;rounded=0;entryX=1;entryY=0.5;entryDx=0;entryDy=0;exitX=0;exitY=0.5;exitDx=0;exitDy=0;dashed=1;endFill=0;" edge="1" parent="GqWoVpASG3csie5MfJsl-6" source="-MZYs4E1BQSsxQn4g9lz-76" target="GqWoVpASG3csie5MfJsl-39">
          <mxGeometry relative="1" as="geometry">
            <mxPoint x="491.5" y="330" as="sourcePoint" />
            <mxPoint x="397.4999999999998" y="330" as="targetPoint" />
            <Array as="points" />
          </mxGeometry>
        </mxCell>
        <mxCell id="-MZYs4E1BQSsxQn4g9lz-98" value="&amp;lt;&amp;lt;extends&amp;gt;&amp;gt;" style="edgeLabel;resizable=0;html=1;align=center;verticalAlign=middle;" connectable="0" vertex="1" parent="-MZYs4E1BQSsxQn4g9lz-97">
          <mxGeometry relative="1" as="geometry" />
        </mxCell>
        <mxCell id="-MZYs4E1BQSsxQn4g9lz-99" value="" style="endArrow=open;html=1;rounded=0;startSize=6;endSize=6;jumpStyle=none;jumpSize=6;exitX=0.5;exitY=1;exitDx=0;exitDy=0;dashed=1;entryX=0;entryY=0;entryDx=0;entryDy=0;endFill=0;" edge="1" parent="GqWoVpASG3csie5MfJsl-6" source="-MZYs4E1BQSsxQn4g9lz-76" target="GqWoVpASG3csie5MfJsl-12">
          <mxGeometry relative="1" as="geometry">
            <mxPoint x="380" y="420" as="sourcePoint" />
            <mxPoint x="510" y="540" as="targetPoint" />
            <Array as="points">
              <mxPoint x="522" y="656" />
            </Array>
          </mxGeometry>
        </mxCell>
        <mxCell id="-MZYs4E1BQSsxQn4g9lz-100" value="include" style="edgeLabel;resizable=0;html=1;align=center;verticalAlign=middle;" connectable="0" vertex="1" parent="-MZYs4E1BQSsxQn4g9lz-99">
          <mxGeometry relative="1" as="geometry" />
        </mxCell>
        <mxCell id="-MZYs4E1BQSsxQn4g9lz-102" value="로그인" style="ellipse;whiteSpace=wrap;html=1;" vertex="1" parent="GqWoVpASG3csie5MfJsl-6">
          <mxGeometry x="30" y="600" width="100" height="40" as="geometry" />
        </mxCell>
        <mxCell id="-MZYs4E1BQSsxQn4g9lz-103" value="게시글 추가" style="ellipse;whiteSpace=wrap;html=1;" vertex="1" parent="GqWoVpASG3csie5MfJsl-6">
          <mxGeometry x="920" y="60" width="100" height="40" as="geometry" />
        </mxCell>
        <mxCell id="-MZYs4E1BQSsxQn4g9lz-104" value="게시글 삭제" style="ellipse;whiteSpace=wrap;html=1;" vertex="1" parent="GqWoVpASG3csie5MfJsl-6">
          <mxGeometry x="920" y="110" width="100" height="40" as="geometry" />
        </mxCell>
        <mxCell id="-MZYs4E1BQSsxQn4g9lz-105" value="게시글 수정" style="ellipse;whiteSpace=wrap;html=1;" vertex="1" parent="GqWoVpASG3csie5MfJsl-6">
          <mxGeometry x="920" y="160" width="100" height="40" as="geometry" />
        </mxCell>
        <mxCell id="-MZYs4E1BQSsxQn4g9lz-106" value="리뷰 관리" style="ellipse;whiteSpace=wrap;html=1;" vertex="1" parent="GqWoVpASG3csie5MfJsl-6">
          <mxGeometry x="740" y="110" width="100" height="40" as="geometry" />
        </mxCell>
        <mxCell id="-MZYs4E1BQSsxQn4g9lz-109" value="" style="endArrow=open;html=1;rounded=0;entryX=1;entryY=0.5;entryDx=0;entryDy=0;exitX=0;exitY=0.5;exitDx=0;exitDy=0;dashed=1;endFill=0;" edge="1" parent="GqWoVpASG3csie5MfJsl-6" source="-MZYs4E1BQSsxQn4g9lz-106" target="-MZYs4E1BQSsxQn4g9lz-19">
          <mxGeometry relative="1" as="geometry">
            <mxPoint x="774" y="230" as="sourcePoint" />
            <mxPoint x="680" y="160" as="targetPoint" />
            <Array as="points" />
          </mxGeometry>
        </mxCell>
        <mxCell id="-MZYs4E1BQSsxQn4g9lz-110" value="&amp;lt;&amp;lt;extends&amp;gt;&amp;gt;" style="edgeLabel;resizable=0;html=1;align=center;verticalAlign=middle;" connectable="0" vertex="1" parent="-MZYs4E1BQSsxQn4g9lz-109">
          <mxGeometry relative="1" as="geometry" />
        </mxCell>
        <mxCell id="-MZYs4E1BQSsxQn4g9lz-111" value="" style="endArrow=open;html=1;rounded=0;entryX=1;entryY=0.5;entryDx=0;entryDy=0;exitX=0;exitY=0.5;exitDx=0;exitDy=0;dashed=1;endFill=0;" edge="1" parent="GqWoVpASG3csie5MfJsl-6" source="-MZYs4E1BQSsxQn4g9lz-103" target="-MZYs4E1BQSsxQn4g9lz-106">
          <mxGeometry relative="1" as="geometry">
            <mxPoint x="832.4999999999998" y="220" as="sourcePoint" />
            <mxPoint x="749.9999999999998" y="220" as="targetPoint" />
            <Array as="points" />
          </mxGeometry>
        </mxCell>
        <mxCell id="-MZYs4E1BQSsxQn4g9lz-112" value="&amp;lt;&amp;lt;extends&amp;gt;&amp;gt;" style="edgeLabel;resizable=0;html=1;align=center;verticalAlign=middle;" connectable="0" vertex="1" parent="-MZYs4E1BQSsxQn4g9lz-111">
          <mxGeometry relative="1" as="geometry" />
        </mxCell>
        <mxCell id="-MZYs4E1BQSsxQn4g9lz-113" value="" style="endArrow=open;html=1;rounded=0;entryX=1;entryY=0.5;entryDx=0;entryDy=0;exitX=0;exitY=0.5;exitDx=0;exitDy=0;dashed=1;endFill=0;" edge="1" parent="GqWoVpASG3csie5MfJsl-6" source="-MZYs4E1BQSsxQn4g9lz-104" target="-MZYs4E1BQSsxQn4g9lz-106">
          <mxGeometry relative="1" as="geometry">
            <mxPoint x="769.9999999999998" y="150" as="sourcePoint" />
            <mxPoint x="687.4999999999998" y="150" as="targetPoint" />
            <Array as="points" />
          </mxGeometry>
        </mxCell>
        <mxCell id="-MZYs4E1BQSsxQn4g9lz-114" value="&amp;lt;&amp;lt;extends&amp;gt;&amp;gt;" style="edgeLabel;resizable=0;html=1;align=center;verticalAlign=middle;" connectable="0" vertex="1" parent="-MZYs4E1BQSsxQn4g9lz-113">
          <mxGeometry relative="1" as="geometry" />
        </mxCell>
        <mxCell id="-MZYs4E1BQSsxQn4g9lz-115" value="" style="endArrow=open;html=1;rounded=0;entryX=1;entryY=0.5;entryDx=0;entryDy=0;exitX=0;exitY=0.5;exitDx=0;exitDy=0;dashed=1;endFill=0;" edge="1" parent="GqWoVpASG3csie5MfJsl-6" source="-MZYs4E1BQSsxQn4g9lz-105" target="-MZYs4E1BQSsxQn4g9lz-106">
          <mxGeometry relative="1" as="geometry">
            <mxPoint x="779.9999999999998" y="160" as="sourcePoint" />
            <mxPoint x="697.4999999999998" y="160" as="targetPoint" />
            <Array as="points" />
          </mxGeometry>
        </mxCell>
        <mxCell id="-MZYs4E1BQSsxQn4g9lz-116" value="&amp;lt;&amp;lt;extends&amp;gt;&amp;gt;" style="edgeLabel;resizable=0;html=1;align=center;verticalAlign=middle;" connectable="0" vertex="1" parent="-MZYs4E1BQSsxQn4g9lz-115">
          <mxGeometry relative="1" as="geometry" />
        </mxCell>
        <mxCell id="-MZYs4E1BQSsxQn4g9lz-117" value="" style="endArrow=open;html=1;rounded=0;startSize=6;endSize=6;jumpStyle=none;jumpSize=6;exitX=0.5;exitY=1;exitDx=0;exitDy=0;dashed=1;endFill=0;entryX=1;entryY=0.5;entryDx=0;entryDy=0;" edge="1" parent="GqWoVpASG3csie5MfJsl-6" source="-MZYs4E1BQSsxQn4g9lz-106" target="GqWoVpASG3csie5MfJsl-12">
          <mxGeometry relative="1" as="geometry">
            <mxPoint x="810" y="182" as="sourcePoint" />
            <mxPoint x="930" y="670" as="targetPoint" />
            <Array as="points">
              <mxPoint x="790" y="270" />
              <mxPoint x="930" y="270" />
              <mxPoint x="930" y="670" />
            </Array>
          </mxGeometry>
        </mxCell>
        <mxCell id="-MZYs4E1BQSsxQn4g9lz-118" value="include" style="edgeLabel;resizable=0;html=1;align=center;verticalAlign=middle;" connectable="0" vertex="1" parent="-MZYs4E1BQSsxQn4g9lz-117">
          <mxGeometry relative="1" as="geometry" />
        </mxCell>
        <mxCell id="-MZYs4E1BQSsxQn4g9lz-119" value="" style="endArrow=open;html=1;rounded=0;startSize=6;endSize=6;jumpStyle=none;jumpSize=6;entryX=0.5;entryY=1;entryDx=0;entryDy=0;exitX=1;exitY=0;exitDx=0;exitDy=0;endFill=0;" edge="1" parent="GqWoVpASG3csie5MfJsl-6" source="GqWoVpASG3csie5MfJsl-36" target="-MZYs4E1BQSsxQn4g9lz-102">
          <mxGeometry width="50" height="50" relative="1" as="geometry">
            <mxPoint x="260" y="740" as="sourcePoint" />
            <mxPoint x="310" y="690" as="targetPoint" />
            <Array as="points">
              <mxPoint x="150" y="856" />
              <mxPoint x="150" y="760" />
              <mxPoint x="150" y="660" />
              <mxPoint x="80" y="660" />
            </Array>
          </mxGeometry>
        </mxCell>
        <mxCell id="-MZYs4E1BQSsxQn4g9lz-120" value="" style="endArrow=open;html=1;rounded=0;startSize=6;endSize=6;jumpStyle=none;jumpSize=6;entryX=0;entryY=0.5;entryDx=0;entryDy=0;exitX=1;exitY=0.5;exitDx=0;exitDy=0;dashed=1;endFill=0;" edge="1" parent="GqWoVpASG3csie5MfJsl-6" source="-MZYs4E1BQSsxQn4g9lz-102" target="GqWoVpASG3csie5MfJsl-12">
          <mxGeometry relative="1" as="geometry">
            <mxPoint x="380" y="680" as="sourcePoint" />
            <mxPoint x="480" y="680" as="targetPoint" />
            <Array as="points">
              <mxPoint x="230" y="620" />
              <mxPoint x="230" y="670" />
            </Array>
          </mxGeometry>
        </mxCell>
        <mxCell id="-MZYs4E1BQSsxQn4g9lz-121" value="include" style="edgeLabel;resizable=0;html=1;align=center;verticalAlign=middle;" connectable="0" vertex="1" parent="-MZYs4E1BQSsxQn4g9lz-120">
          <mxGeometry relative="1" as="geometry" />
        </mxCell>
        <mxCell id="-MZYs4E1BQSsxQn4g9lz-124" value="PW찾기" style="ellipse;whiteSpace=wrap;html=1;" vertex="1" parent="GqWoVpASG3csie5MfJsl-6">
          <mxGeometry x="190" y="550" width="100" height="40" as="geometry" />
        </mxCell>
        <mxCell id="-MZYs4E1BQSsxQn4g9lz-125" value="SNS로그인" style="ellipse;whiteSpace=wrap;html=1;" vertex="1" parent="GqWoVpASG3csie5MfJsl-6">
          <mxGeometry x="190" y="440" width="100" height="40" as="geometry" />
        </mxCell>
        <mxCell id="-MZYs4E1BQSsxQn4g9lz-128" value="" style="endArrow=open;html=1;rounded=0;startSize=6;endSize=6;jumpStyle=none;jumpSize=6;entryX=1;entryY=0;entryDx=0;entryDy=0;exitX=0;exitY=0.5;exitDx=0;exitDy=0;dashed=1;endFill=0;" edge="1" parent="GqWoVpASG3csie5MfJsl-6" source="-MZYs4E1BQSsxQn4g9lz-124" target="-MZYs4E1BQSsxQn4g9lz-102">
          <mxGeometry relative="1" as="geometry">
            <mxPoint x="340" y="640" as="sourcePoint" />
            <mxPoint x="440" y="640" as="targetPoint" />
            <Array as="points">
              <mxPoint x="115" y="570" />
            </Array>
          </mxGeometry>
        </mxCell>
        <mxCell id="-MZYs4E1BQSsxQn4g9lz-129" value="&amp;lt;&amp;lt;extends&amp;gt;&amp;gt;" style="edgeLabel;resizable=0;html=1;align=center;verticalAlign=middle;" connectable="0" vertex="1" parent="-MZYs4E1BQSsxQn4g9lz-128">
          <mxGeometry relative="1" as="geometry">
            <mxPoint x="5" as="offset" />
          </mxGeometry>
        </mxCell>
        <mxCell id="-MZYs4E1BQSsxQn4g9lz-130" value="" style="endArrow=open;html=1;rounded=0;startSize=6;endSize=6;jumpStyle=none;jumpSize=6;exitX=0;exitY=0.5;exitDx=0;exitDy=0;dashed=1;endFill=0;entryX=0.5;entryY=0;entryDx=0;entryDy=0;" edge="1" parent="GqWoVpASG3csie5MfJsl-6" source="-MZYs4E1BQSsxQn4g9lz-11" target="-MZYs4E1BQSsxQn4g9lz-102">
          <mxGeometry relative="1" as="geometry">
            <mxPoint x="169.99999999999977" y="590" as="sourcePoint" />
            <mxPoint x="120" y="590" as="targetPoint" />
            <Array as="points">
              <mxPoint x="110" y="520" />
            </Array>
          </mxGeometry>
        </mxCell>
        <mxCell id="-MZYs4E1BQSsxQn4g9lz-131" value="&amp;lt;&amp;lt;extends&amp;gt;&amp;gt;" style="edgeLabel;resizable=0;html=1;align=center;verticalAlign=middle;" connectable="0" vertex="1" parent="-MZYs4E1BQSsxQn4g9lz-130">
          <mxGeometry relative="1" as="geometry" />
        </mxCell>
        <mxCell id="-MZYs4E1BQSsxQn4g9lz-132" value="" style="endArrow=open;html=1;rounded=0;dashed=1;startSize=6;endSize=6;jumpStyle=none;jumpSize=6;entryX=0;entryY=0.5;entryDx=0;entryDy=0;exitX=1;exitY=0.5;exitDx=0;exitDy=0;endFill=0;" edge="1" parent="GqWoVpASG3csie5MfJsl-6" source="-MZYs4E1BQSsxQn4g9lz-11" target="GqWoVpASG3csie5MfJsl-74">
          <mxGeometry relative="1" as="geometry">
            <mxPoint x="310" y="550" as="sourcePoint" />
            <mxPoint x="410" y="550" as="targetPoint" />
          </mxGeometry>
        </mxCell>
        <mxCell id="-MZYs4E1BQSsxQn4g9lz-133" value="&amp;lt;&amp;lt;include&amp;gt;&amp;gt;" style="edgeLabel;resizable=0;html=1;align=center;verticalAlign=middle;" connectable="0" vertex="1" parent="-MZYs4E1BQSsxQn4g9lz-132">
          <mxGeometry relative="1" as="geometry">
            <mxPoint x="-111" y="-15" as="offset" />
          </mxGeometry>
        </mxCell>
        <mxCell id="-MZYs4E1BQSsxQn4g9lz-134" value="" style="endArrow=open;html=1;rounded=0;dashed=1;startSize=6;endSize=6;jumpStyle=none;jumpSize=6;entryX=0;entryY=0.5;entryDx=0;entryDy=0;exitX=1;exitY=0.5;exitDx=0;exitDy=0;endFill=0;" edge="1" parent="GqWoVpASG3csie5MfJsl-6" source="-MZYs4E1BQSsxQn4g9lz-124" target="GqWoVpASG3csie5MfJsl-74">
          <mxGeometry relative="1" as="geometry">
            <mxPoint x="290" y="560" as="sourcePoint" />
            <mxPoint x="667.4999999999998" y="610" as="targetPoint" />
          </mxGeometry>
        </mxCell>
        <mxCell id="-MZYs4E1BQSsxQn4g9lz-135" value="&amp;lt;&amp;lt;include&amp;gt;&amp;gt;" style="edgeLabel;resizable=0;html=1;align=center;verticalAlign=middle;" connectable="0" vertex="1" parent="-MZYs4E1BQSsxQn4g9lz-134">
          <mxGeometry relative="1" as="geometry">
            <mxPoint x="-111" y="5" as="offset" />
          </mxGeometry>
        </mxCell>
        <mxCell id="-MZYs4E1BQSsxQn4g9lz-136" value="" style="endArrow=open;html=1;rounded=0;startSize=6;endSize=6;jumpStyle=none;jumpSize=6;exitX=0;exitY=0.5;exitDx=0;exitDy=0;dashed=1;endFill=0;entryX=0.5;entryY=0;entryDx=0;entryDy=0;" edge="1" parent="GqWoVpASG3csie5MfJsl-6" source="-MZYs4E1BQSsxQn4g9lz-125" target="-MZYs4E1BQSsxQn4g9lz-102">
          <mxGeometry relative="1" as="geometry">
            <mxPoint x="199.99999999999977" y="530" as="sourcePoint" />
            <mxPoint x="60" y="580" as="targetPoint" />
            <Array as="points">
              <mxPoint x="90" y="460" />
            </Array>
          </mxGeometry>
        </mxCell>
        <mxCell id="-MZYs4E1BQSsxQn4g9lz-137" value="&amp;lt;&amp;lt;extends&amp;gt;&amp;gt;" style="edgeLabel;resizable=0;html=1;align=center;verticalAlign=middle;" connectable="0" vertex="1" parent="-MZYs4E1BQSsxQn4g9lz-136">
          <mxGeometry relative="1" as="geometry" />
        </mxCell>
        <mxCell id="-MZYs4E1BQSsxQn4g9lz-138" value="" style="endArrow=open;html=1;rounded=0;dashed=1;startSize=6;endSize=6;jumpStyle=none;jumpSize=6;entryX=0;entryY=0.5;entryDx=0;entryDy=0;exitX=1;exitY=0.5;exitDx=0;exitDy=0;endFill=0;" edge="1" parent="GqWoVpASG3csie5MfJsl-6" source="-MZYs4E1BQSsxQn4g9lz-125" target="GqWoVpASG3csie5MfJsl-74">
          <mxGeometry relative="1" as="geometry">
            <mxPoint x="298.75" y="465" as="sourcePoint" />
            <mxPoint x="676.25" y="515" as="targetPoint" />
          </mxGeometry>
        </mxCell>
        <mxCell id="-MZYs4E1BQSsxQn4g9lz-139" value="&amp;lt;&amp;lt;include&amp;gt;&amp;gt;" style="edgeLabel;resizable=0;html=1;align=center;verticalAlign=middle;" connectable="0" vertex="1" parent="-MZYs4E1BQSsxQn4g9lz-138">
          <mxGeometry relative="1" as="geometry">
            <mxPoint x="-111" y="-35" as="offset" />
          </mxGeometry>
        </mxCell>
        <mxCell id="-MZYs4E1BQSsxQn4g9lz-140" value="" style="endArrow=open;html=1;rounded=0;dashed=1;startSize=6;endSize=6;jumpStyle=none;jumpSize=6;entryX=0.5;entryY=1;entryDx=0;entryDy=0;exitX=0.5;exitY=0;exitDx=0;exitDy=0;endFill=0;" edge="1" parent="GqWoVpASG3csie5MfJsl-6" source="GqWoVpASG3csie5MfJsl-13" target="GqWoVpASG3csie5MfJsl-10">
          <mxGeometry relative="1" as="geometry">
            <mxPoint x="190" y="300" as="sourcePoint" />
            <mxPoint x="290" y="300" as="targetPoint" />
          </mxGeometry>
        </mxCell>
        <mxCell id="-MZYs4E1BQSsxQn4g9lz-141" value="&amp;lt;&amp;lt;extends&amp;gt;&amp;gt;" style="edgeLabel;resizable=0;html=1;align=center;verticalAlign=middle;" connectable="0" vertex="1" parent="-MZYs4E1BQSsxQn4g9lz-140">
          <mxGeometry relative="1" as="geometry" />
        </mxCell>
        <mxCell id="-MZYs4E1BQSsxQn4g9lz-145" value="챗봇 질문 관리" style="ellipse;whiteSpace=wrap;html=1;" vertex="1" parent="GqWoVpASG3csie5MfJsl-6">
          <mxGeometry x="30" y="1070" width="100" height="40" as="geometry" />
        </mxCell>
        <mxCell id="-MZYs4E1BQSsxQn4g9lz-149" value="암호변경" style="ellipse;whiteSpace=wrap;html=1;" vertex="1" parent="GqWoVpASG3csie5MfJsl-6">
          <mxGeometry x="172.5" y="930" width="100" height="40" as="geometry" />
        </mxCell>
        <mxCell id="-MZYs4E1BQSsxQn4g9lz-153" value="" style="endArrow=open;html=1;rounded=0;startSize=6;endSize=6;jumpStyle=none;jumpSize=6;entryX=1;entryY=1;entryDx=0;entryDy=0;exitX=0;exitY=0.5;exitDx=0;exitDy=0;dashed=1;endFill=0;" edge="1" parent="GqWoVpASG3csie5MfJsl-6" source="-MZYs4E1BQSsxQn4g9lz-149" target="GqWoVpASG3csie5MfJsl-36">
          <mxGeometry relative="1" as="geometry">
            <mxPoint x="160" y="690" as="sourcePoint" />
            <mxPoint x="260" y="690" as="targetPoint" />
          </mxGeometry>
        </mxCell>
        <mxCell id="-MZYs4E1BQSsxQn4g9lz-154" value="&amp;lt;&amp;lt;extends&amp;gt;&amp;gt;" style="edgeLabel;resizable=0;html=1;align=center;verticalAlign=middle;" connectable="0" vertex="1" parent="-MZYs4E1BQSsxQn4g9lz-153">
          <mxGeometry relative="1" as="geometry" />
        </mxCell>
        <mxCell id="-MZYs4E1BQSsxQn4g9lz-155" value="회원 관리" style="ellipse;whiteSpace=wrap;html=1;" vertex="1" parent="GqWoVpASG3csie5MfJsl-6">
          <mxGeometry x="420" y="1050" width="100" height="40" as="geometry" />
        </mxCell>
        <mxCell id="-MZYs4E1BQSsxQn4g9lz-156" value="회원 삭제" style="ellipse;whiteSpace=wrap;html=1;" vertex="1" parent="GqWoVpASG3csie5MfJsl-6">
          <mxGeometry x="597.5" y="1100" width="100" height="40" as="geometry" />
        </mxCell>
        <mxCell id="-MZYs4E1BQSsxQn4g9lz-157" value="회원 조회" style="ellipse;whiteSpace=wrap;html=1;" vertex="1" parent="GqWoVpASG3csie5MfJsl-6">
          <mxGeometry x="597.5" y="1010" width="100" height="40" as="geometry" />
        </mxCell>
        <mxCell id="-MZYs4E1BQSsxQn4g9lz-161" value="답변 추가" style="ellipse;whiteSpace=wrap;html=1;" vertex="1" parent="GqWoVpASG3csie5MfJsl-6">
          <mxGeometry x="207.5" y="1020" width="100" height="40" as="geometry" />
        </mxCell>
        <mxCell id="-MZYs4E1BQSsxQn4g9lz-162" value="답변 수정" style="ellipse;whiteSpace=wrap;html=1;" vertex="1" parent="GqWoVpASG3csie5MfJsl-6">
          <mxGeometry x="207.5" y="1070" width="100" height="40" as="geometry" />
        </mxCell>
        <mxCell id="-MZYs4E1BQSsxQn4g9lz-163" value="답변 삭제" style="ellipse;whiteSpace=wrap;html=1;" vertex="1" parent="GqWoVpASG3csie5MfJsl-6">
          <mxGeometry x="207.5" y="1120" width="100" height="40" as="geometry" />
        </mxCell>
        <mxCell id="-MZYs4E1BQSsxQn4g9lz-164" value="" style="endArrow=open;html=1;rounded=0;startSize=6;endSize=6;jumpStyle=none;jumpSize=6;entryX=1;entryY=0.5;entryDx=0;entryDy=0;exitX=0;exitY=0.5;exitDx=0;exitDy=0;endFill=0;dashed=1;" edge="1" parent="GqWoVpASG3csie5MfJsl-6" source="-MZYs4E1BQSsxQn4g9lz-161" target="-MZYs4E1BQSsxQn4g9lz-145">
          <mxGeometry relative="1" as="geometry">
            <mxPoint x="-110" y="1010" as="sourcePoint" />
            <mxPoint x="-10" y="1010" as="targetPoint" />
          </mxGeometry>
        </mxCell>
        <mxCell id="-MZYs4E1BQSsxQn4g9lz-165" value="&amp;lt;&amp;lt;extends&amp;gt;&amp;gt;" style="edgeLabel;resizable=0;html=1;align=center;verticalAlign=middle;" connectable="0" vertex="1" parent="-MZYs4E1BQSsxQn4g9lz-164">
          <mxGeometry relative="1" as="geometry" />
        </mxCell>
        <mxCell id="-MZYs4E1BQSsxQn4g9lz-166" value="" style="endArrow=open;html=1;rounded=0;startSize=6;endSize=6;jumpStyle=none;jumpSize=6;entryX=1;entryY=0.5;entryDx=0;entryDy=0;exitX=0;exitY=0.5;exitDx=0;exitDy=0;endFill=0;dashed=1;" edge="1" parent="GqWoVpASG3csie5MfJsl-6" source="-MZYs4E1BQSsxQn4g9lz-162" target="-MZYs4E1BQSsxQn4g9lz-145">
          <mxGeometry relative="1" as="geometry">
            <mxPoint x="217.5" y="1050" as="sourcePoint" />
            <mxPoint x="127.50000000000546" y="1100" as="targetPoint" />
          </mxGeometry>
        </mxCell>
        <mxCell id="-MZYs4E1BQSsxQn4g9lz-167" value="&amp;lt;&amp;lt;extends&amp;gt;&amp;gt;" style="edgeLabel;resizable=0;html=1;align=center;verticalAlign=middle;" connectable="0" vertex="1" parent="-MZYs4E1BQSsxQn4g9lz-166">
          <mxGeometry relative="1" as="geometry" />
        </mxCell>
        <mxCell id="-MZYs4E1BQSsxQn4g9lz-168" value="" style="endArrow=open;html=1;rounded=0;startSize=6;endSize=6;jumpStyle=none;jumpSize=6;entryX=1;entryY=0.5;entryDx=0;entryDy=0;exitX=0;exitY=0.5;exitDx=0;exitDy=0;endFill=0;dashed=1;" edge="1" parent="GqWoVpASG3csie5MfJsl-6" source="-MZYs4E1BQSsxQn4g9lz-163" target="-MZYs4E1BQSsxQn4g9lz-145">
          <mxGeometry relative="1" as="geometry">
            <mxPoint x="227.5" y="1060" as="sourcePoint" />
            <mxPoint x="137.50000000000546" y="1110" as="targetPoint" />
          </mxGeometry>
        </mxCell>
        <mxCell id="-MZYs4E1BQSsxQn4g9lz-169" value="&amp;lt;&amp;lt;extends&amp;gt;&amp;gt;" style="edgeLabel;resizable=0;html=1;align=center;verticalAlign=middle;" connectable="0" vertex="1" parent="-MZYs4E1BQSsxQn4g9lz-168">
          <mxGeometry relative="1" as="geometry" />
        </mxCell>
        <mxCell id="-MZYs4E1BQSsxQn4g9lz-170" value="" style="endArrow=open;html=1;rounded=0;startSize=6;endSize=6;jumpStyle=none;jumpSize=6;entryX=1;entryY=0.5;entryDx=0;entryDy=0;exitX=0;exitY=0.5;exitDx=0;exitDy=0;endFill=0;dashed=1;" edge="1" parent="GqWoVpASG3csie5MfJsl-6" source="-MZYs4E1BQSsxQn4g9lz-156" target="-MZYs4E1BQSsxQn4g9lz-155">
          <mxGeometry relative="1" as="geometry">
            <mxPoint x="560" y="1140" as="sourcePoint" />
            <mxPoint x="470.00000000000546" y="1090" as="targetPoint" />
          </mxGeometry>
        </mxCell>
        <mxCell id="-MZYs4E1BQSsxQn4g9lz-171" value="&amp;lt;&amp;lt;extends&amp;gt;&amp;gt;" style="edgeLabel;resizable=0;html=1;align=center;verticalAlign=middle;" connectable="0" vertex="1" parent="-MZYs4E1BQSsxQn4g9lz-170">
          <mxGeometry relative="1" as="geometry" />
        </mxCell>
        <mxCell id="-MZYs4E1BQSsxQn4g9lz-172" value="" style="endArrow=open;html=1;rounded=0;startSize=6;endSize=6;jumpStyle=none;jumpSize=6;entryX=1;entryY=0.5;entryDx=0;entryDy=0;exitX=0;exitY=0.5;exitDx=0;exitDy=0;endFill=0;dashed=1;" edge="1" parent="GqWoVpASG3csie5MfJsl-6" source="-MZYs4E1BQSsxQn4g9lz-157" target="-MZYs4E1BQSsxQn4g9lz-155">
          <mxGeometry relative="1" as="geometry">
            <mxPoint x="617.5" y="970" as="sourcePoint" />
            <mxPoint x="527.5000000000055" y="920" as="targetPoint" />
          </mxGeometry>
        </mxCell>
        <mxCell id="-MZYs4E1BQSsxQn4g9lz-173" value="&amp;lt;&amp;lt;extends&amp;gt;&amp;gt;" style="edgeLabel;resizable=0;html=1;align=center;verticalAlign=middle;" connectable="0" vertex="1" parent="-MZYs4E1BQSsxQn4g9lz-172">
          <mxGeometry relative="1" as="geometry" />
        </mxCell>
        <mxCell id="-MZYs4E1BQSsxQn4g9lz-174" value="" style="endArrow=classic;html=1;rounded=0;dashed=1;startSize=6;endSize=6;jumpStyle=none;jumpSize=6;entryX=0;entryY=1;entryDx=0;entryDy=0;exitX=0;exitY=0;exitDx=0;exitDy=0;" edge="1" parent="GqWoVpASG3csie5MfJsl-6" source="-MZYs4E1BQSsxQn4g9lz-102" target="GqWoVpASG3csie5MfJsl-10">
          <mxGeometry relative="1" as="geometry">
            <mxPoint x="68" y="510" as="sourcePoint" />
            <mxPoint x="38" y="250" as="targetPoint" />
            <Array as="points">
              <mxPoint x="16" y="590" />
              <mxPoint x="16" y="190" />
            </Array>
          </mxGeometry>
        </mxCell>
        <mxCell id="-MZYs4E1BQSsxQn4g9lz-175" value="&amp;lt;&amp;lt;extends&amp;gt;&amp;gt;" style="edgeLabel;resizable=0;html=1;align=center;verticalAlign=middle;" connectable="0" vertex="1" parent="-MZYs4E1BQSsxQn4g9lz-174">
          <mxGeometry relative="1" as="geometry" />
        </mxCell>
        <mxCell id="GqWoVpASG3csie5MfJsl-15" value="" style="endArrow=none;html=1;rounded=0;entryX=0;entryY=0.5;entryDx=0;entryDy=0;exitX=0.5;exitY=0.5;exitDx=0;exitDy=0;exitPerimeter=0;" parent="1" source="GqWoVpASG3csie5MfJsl-3" target="GqWoVpASG3csie5MfJsl-9" edge="1">
          <mxGeometry width="50" height="50" relative="1" as="geometry">
            <mxPoint x="712.5" y="470" as="sourcePoint" />
            <mxPoint x="762.5" y="420" as="targetPoint" />
            <Array as="points">
              <mxPoint x="490" y="410" />
              <mxPoint x="490" y="180" />
            </Array>
          </mxGeometry>
        </mxCell>
        <mxCell id="GqWoVpASG3csie5MfJsl-16" value="" style="endArrow=none;html=1;rounded=0;exitX=0.5;exitY=0.5;exitDx=0;exitDy=0;exitPerimeter=0;entryX=0;entryY=0.5;entryDx=0;entryDy=0;" parent="1" source="GqWoVpASG3csie5MfJsl-3" target="GqWoVpASG3csie5MfJsl-10" edge="1">
          <mxGeometry width="50" height="50" relative="1" as="geometry">
            <mxPoint x="712.5" y="470" as="sourcePoint" />
            <mxPoint x="762.5" y="420" as="targetPoint" />
            <Array as="points">
              <mxPoint x="520" y="430" />
              <mxPoint x="520" y="300" />
            </Array>
          </mxGeometry>
        </mxCell>
        <mxCell id="GqWoVpASG3csie5MfJsl-17" value="" style="endArrow=none;html=1;rounded=0;exitX=0.5;exitY=0.5;exitDx=0;exitDy=0;exitPerimeter=0;entryX=0;entryY=0.5;entryDx=0;entryDy=0;" parent="1" source="GqWoVpASG3csie5MfJsl-3" target="GqWoVpASG3csie5MfJsl-11" edge="1">
          <mxGeometry width="50" height="50" relative="1" as="geometry">
            <mxPoint x="692.5" y="460" as="sourcePoint" />
            <mxPoint x="742.5" y="410" as="targetPoint" />
            <Array as="points">
              <mxPoint x="520" y="500" />
              <mxPoint x="520" y="860" />
            </Array>
          </mxGeometry>
        </mxCell>
        <mxCell id="GqWoVpASG3csie5MfJsl-30" value="관리자" style="shape=umlActor;verticalLabelPosition=bottom;verticalAlign=top;html=1;outlineConnect=0;" parent="1" vertex="1">
          <mxGeometry x="410" y="990" width="30" height="60" as="geometry" />
        </mxCell>
        <mxCell id="GqWoVpASG3csie5MfJsl-31" value="" style="endArrow=none;html=1;rounded=0;" parent="1" edge="1">
          <mxGeometry width="50" height="50" relative="1" as="geometry">
            <mxPoint x="292.5" y="550" as="sourcePoint" />
            <mxPoint x="362.5" y="550" as="targetPoint" />
          </mxGeometry>
        </mxCell>
        <mxCell id="GqWoVpASG3csie5MfJsl-33" value="+회원정보 찾기()&lt;br&gt;+마이페이지()&lt;br&gt;+평점 및 리뷰 등록()&lt;br&gt;+리뷰 게시판()&lt;br&gt;+질문 게시판()" style="text;html=1;strokeColor=none;fillColor=none;align=center;verticalAlign=middle;whiteSpace=wrap;rounded=0;" parent="1" vertex="1">
          <mxGeometry x="270" y="580" width="115" height="30" as="geometry" />
        </mxCell>
        <mxCell id="GqWoVpASG3csie5MfJsl-34" value="" style="endArrow=none;html=1;rounded=0;" parent="1" edge="1">
          <mxGeometry width="50" height="50" relative="1" as="geometry">
            <mxPoint x="432.5" y="480" as="sourcePoint" />
            <mxPoint x="502.5" y="480" as="targetPoint" />
          </mxGeometry>
        </mxCell>
        <mxCell id="GqWoVpASG3csie5MfJsl-35" value="+질문하기()&lt;br&gt;+로그인()&lt;br&gt;+키워드 검색()&lt;br&gt;+회원가입()&lt;br&gt;+자유 게시판()" style="text;html=1;strokeColor=none;fillColor=none;align=center;verticalAlign=middle;whiteSpace=wrap;rounded=0;" parent="1" vertex="1">
          <mxGeometry x="410" y="470" width="115" height="100" as="geometry" />
        </mxCell>
        <mxCell id="-MZYs4E1BQSsxQn4g9lz-20" value="지도 API" style="shape=umlActor;verticalLabelPosition=bottom;verticalAlign=top;html=1;outlineConnect=0;" vertex="1" parent="1">
          <mxGeometry x="887.5" y="20" width="30" height="60" as="geometry" />
        </mxCell>
        <mxCell id="-MZYs4E1BQSsxQn4g9lz-91" value="" style="endArrow=open;html=1;rounded=0;entryX=1;entryY=0.5;entryDx=0;entryDy=0;exitX=0.5;exitY=0.5;exitDx=0;exitDy=0;dashed=1;endFill=0;exitPerimeter=0;" edge="1" parent="1" source="-MZYs4E1BQSsxQn4g9lz-20" target="GqWoVpASG3csie5MfJsl-14">
          <mxGeometry relative="1" as="geometry">
            <mxPoint x="1210" y="400" as="sourcePoint" />
            <mxPoint x="1114" y="450" as="targetPoint" />
            <Array as="points">
              <mxPoint x="860" y="50" />
              <mxPoint x="860" y="220" />
            </Array>
          </mxGeometry>
        </mxCell>
        <mxCell id="-MZYs4E1BQSsxQn4g9lz-92" value="&amp;lt;&amp;lt;extends&amp;gt;&amp;gt;" style="edgeLabel;resizable=0;html=1;align=center;verticalAlign=middle;" connectable="0" vertex="1" parent="-MZYs4E1BQSsxQn4g9lz-91">
          <mxGeometry relative="1" as="geometry">
            <mxPoint y="41" as="offset" />
          </mxGeometry>
        </mxCell>
        <mxCell id="-MZYs4E1BQSsxQn4g9lz-77" value="" style="endArrow=open;html=1;rounded=0;dashed=1;endFill=0;entryX=0;entryY=0.5;entryDx=0;entryDy=0;exitX=0.5;exitY=0.5;exitDx=0;exitDy=0;exitPerimeter=0;" edge="1" parent="1" source="-MZYs4E1BQSsxQn4g9lz-20" target="-MZYs4E1BQSsxQn4g9lz-16">
          <mxGeometry relative="1" as="geometry">
            <mxPoint x="902.5" y="60" as="sourcePoint" />
            <mxPoint x="987.5" y="230" as="targetPoint" />
            <Array as="points">
              <mxPoint x="950" y="50" />
              <mxPoint x="950" y="220" />
            </Array>
          </mxGeometry>
        </mxCell>
        <mxCell id="-MZYs4E1BQSsxQn4g9lz-78" value="&amp;lt;&amp;lt;include&amp;gt;&amp;gt;" style="edgeLabel;resizable=0;html=1;align=center;verticalAlign=middle;" connectable="0" vertex="1" parent="-MZYs4E1BQSsxQn4g9lz-77">
          <mxGeometry relative="1" as="geometry">
            <mxPoint x="4" y="50" as="offset" />
          </mxGeometry>
        </mxCell>
        <mxCell id="-MZYs4E1BQSsxQn4g9lz-179" value="" style="endArrow=open;html=1;rounded=0;dashed=1;startSize=6;endSize=6;jumpStyle=none;jumpSize=6;entryX=0;entryY=1;entryDx=0;entryDy=0;exitX=0.5;exitY=0.5;exitDx=0;exitDy=0;exitPerimeter=0;endFill=0;" edge="1" parent="1" source="GqWoVpASG3csie5MfJsl-30" target="-MZYs4E1BQSsxQn4g9lz-102">
          <mxGeometry relative="1" as="geometry">
            <mxPoint x="540" y="970" as="sourcePoint" />
            <mxPoint x="640" y="970" as="targetPoint" />
          </mxGeometry>
        </mxCell>
        <mxCell id="-MZYs4E1BQSsxQn4g9lz-180" value="&amp;lt;&amp;lt;include&amp;gt;&amp;gt;" style="edgeLabel;resizable=0;html=1;align=center;verticalAlign=middle;" connectable="0" vertex="1" parent="-MZYs4E1BQSsxQn4g9lz-179">
          <mxGeometry relative="1" as="geometry" />
        </mxCell>
        <mxCell id="-MZYs4E1BQSsxQn4g9lz-190" value="" style="endArrow=none;html=1;rounded=0;startSize=6;endSize=6;jumpStyle=none;jumpSize=6;exitX=0.5;exitY=0.5;exitDx=0;exitDy=0;exitPerimeter=0;entryX=0;entryY=1;entryDx=0;entryDy=0;endFill=0;" edge="1" parent="1" source="GqWoVpASG3csie5MfJsl-30" target="-MZYs4E1BQSsxQn4g9lz-76">
          <mxGeometry width="50" height="50" relative="1" as="geometry">
            <mxPoint x="470" y="1020" as="sourcePoint" />
            <mxPoint x="1000" y="1140" as="targetPoint" />
            <Array as="points">
              <mxPoint x="570" y="1140" />
              <mxPoint x="1040" y="1140" />
              <mxPoint x="1040" y="470" />
              <mxPoint x="1026" y="470" />
            </Array>
          </mxGeometry>
        </mxCell>
        <mxCell id="-MZYs4E1BQSsxQn4g9lz-192" value="" style="endArrow=none;html=1;rounded=0;startSize=6;endSize=6;jumpStyle=none;jumpSize=6;exitX=0.5;exitY=0.5;exitDx=0;exitDy=0;exitPerimeter=0;entryX=0;entryY=0.5;entryDx=0;entryDy=0;endFill=0;" edge="1" parent="1" source="GqWoVpASG3csie5MfJsl-30" target="-MZYs4E1BQSsxQn4g9lz-145">
          <mxGeometry width="50" height="50" relative="1" as="geometry">
            <mxPoint x="580" y="1220" as="sourcePoint" />
            <mxPoint x="450" y="1200" as="targetPoint" />
          </mxGeometry>
        </mxCell>
        <mxCell id="-MZYs4E1BQSsxQn4g9lz-194" value="" style="endArrow=none;html=1;rounded=0;startSize=6;endSize=6;jumpStyle=none;jumpSize=6;exitX=0.5;exitY=0.5;exitDx=0;exitDy=0;exitPerimeter=0;entryX=0;entryY=0.5;entryDx=0;entryDy=0;endFill=0;" edge="1" parent="1" source="GqWoVpASG3csie5MfJsl-30" target="-MZYs4E1BQSsxQn4g9lz-155">
          <mxGeometry width="50" height="50" relative="1" as="geometry">
            <mxPoint x="385" y="1130" as="sourcePoint" />
            <mxPoint x="530" y="1330" as="targetPoint" />
            <Array as="points">
              <mxPoint x="470" y="1310" />
              <mxPoint x="960" y="1310" />
            </Array>
          </mxGeometry>
        </mxCell>
      </root>
    </mxGraphModel>
  </diagram>
</mxfile>
